<?xml version="1.0" encoding="utf-8"?>
<COLLADA xmlns="http://www.collada.org/2005/11/COLLADASchema" version="1.4.1">
  <asset><contributor><authoring_tool>ScrapLab Tool Forge</authoring_tool></contributor><unit meter="0.010000" name="centimeter"/><up_axis>Y_UP</up_axis></asset>
  <library_effects><effect id="poleplant-fx"><profile_COMMON><technique sid="common"><phong><diffuse><color>1 1 1 1</color></diffuse></phong></technique></profile_COMMON></effect></library_effects>
  <library_materials><material id="poleplant" name="poleplant"><instance_effect url="#poleplant-fx"/></material></library_materials>
  <library_geometries><geometry id="TreeSaplingHeld-lib" name="TreeSaplingHeld"><mesh>
        <source id="TreeSaplingHeld-POSITION"><float_array id="TreeSaplingHeld-POSITION-array" count="825">0.25313749 2.133441865 -0.582393227 0.439163526 2.155541787 -0.343915119 0.228823693 1.528687772 -0.527228703 0.515224464 1.542412074 -0.428475961 0.21038771 1.833446209 -0.514489759 0.496788634 1.847170462 -0.415737113 0.363940534 2.449752004 -0.454244735 0.251229416 2.430173802 -0.680552725 0.557481977 1.558521294 -0.686709476 0.522343722 1.557171689 -0.719833527 0.342799496 3.273600654 -0.528851737 0.571608554 1.5560436 -0.640578254 0.356926074 3.27112296 -0.482720515 0.307661242 3.272251049 -0.561975788 0.475608134 1.552356375 -0.731075715 0.260925654 3.267435735 -0.573217976 0.429798479 1.545365619 -0.717423093 0.215115999 3.260444978 -0.559565354 0.39718988 1.538072704 -0.682534507 0.1825074 3.253152063 -0.524676767 0.386518919 1.532431568 -0.635757408 0.171836439 3.247510927 -0.477899669 0.400645497 1.529953873 -0.589626176 0.185963017 3.245033233 -0.431768437 0.346255113 3.265481823 -0.435943406 0.560937593 1.550402464 -0.593801145 0.313646509 3.258188908 -0.401054819 0.52832899 1.543109548 -0.558912559 0.267836855 3.251198151 -0.387402197 0.482519335 1.536118791 -0.545259937 0.221101266 3.246382837 -0.398644385 0.435783747 1.531303477 -0.556502125 0.265646349 3.265775069 -0.400107262 0.259771712 3.279577289 -0.55805381 0.225920504 3.261681966 -0.409662999 0.304585157 3.271717279 -0.411711899 0.196051981 3.26053477 -0.43781947 0.184044384 3.262640863 -0.477031594 0.193114664 3.267435877 -0.516792704 0.220832906 3.273635071 -0.546449078 0.299497558 3.283670383 -0.548497978 0.329366084 3.284817579 -0.520341509 0.341373685 3.282711488 -0.481129394 0.332303401 3.277916473 -0.441368276 0.429664452 2.567795127 -0.251152307 0.35757428 2.764086796 -0.443144492 0.19674708 2.492448841 -0.261314706 0.647321988 2.558230744 -0.363243913 0.490979118 2.311545197 -0.145487839 0.124656892 2.68874075 -0.453306994 0.258061732 2.236199124 -0.155650161 0.575231785 2.754522461 -0.555236231 0.708636671 2.30198076 -0.257579469 0.656210346 2.067566375 -0.350493837 0.406347651 2.246411622 -0.506079459 0.443347529 1.953482 -0.177179238 0.786287684 2.049811929 -0.617192623 0.847615308 1.795625181 -0.260850078 0.193485006 2.132327397 -0.332765102 0.634752754 1.681540964 -0.08753557 0.536425044 2.228657002 -0.772778385 0.977692888 1.777870803 -0.527548855 0.456859738 2.297554293 -0.904342166 0.388116021 2.379444271 -0.645477071 0.670889016 2.233156125 -0.812271654 0.225800595 2.231279478 -0.929874691 0.513578101 2.123391416 -1.116222565 0.6021453 2.315046511 -0.553406477 0.7276073 2.058993631 -1.024152131 0.157056901 2.313169671 -0.671009579 0.282518826 2.057116781 -1.141755223 0.059508486 2.527579593 -0.562949267 0.277447145 2.582725352 -0.560358866 0.106224051 2.39415194 -0.695862603 0.058483322 2.567665562 -0.373098364 -0.126166552 2.40652222 -0.525334114 0.324162825 2.44929759 -0.693272328 -0.079450964 2.273094522 -0.658247557 0.276422008 2.622811289 -0.370508002 -0.127191802 2.446608122 -0.335483134 0.107329069 1.815564946 -0.757111089 0.353316474 1.976026523 -0.638731201 0.279800613 1.722256335 -0.947479154 0.023256781 1.784609657 -0.498912549 -0.076236811 1.567356709 -0.827593704 0.525788123 1.882717912 -0.829099127 0.096234808 1.47404801 -1.01796155 0.269244243 1.945071152 -0.380532528 -0.160309117 1.536401318 -0.569394914 0.628046268 2.090342146 -0.849727216 0.454307041 2.037219027 -0.656329286 0.787170003 1.995713912 -0.714915849 0.458094053 2.046061949 -0.996711728 0.794139216 2.045377448 -1.051721022 0.613430718 1.942590593 -0.521517916 0.953262972 1.950749184 -0.916909716 0.28435485 1.992938687 -0.803313888 0.624186992 2.00109698 -1.198705538 0.406667003 1.761439429 -0.254361682 0.420172601 1.836027263 -0.518989634 0.179895466 1.704203474 -0.296110981 0.631713415 1.688854378 -0.277378079 0.391943263 1.595180527 -0.03546709 0.193401095 1.778791227 -0.560738864 0.165171731 1.53794469 -0.077215995 0.645219029 1.763442093 -0.542005984 0.616989692 1.522595356 -0.058483421 0.156451867 2.312556579 -0.459554421 0.29525389 2.454478889 -0.504832469 0.124208754 2.303381872 -0.632061127 0.265351691 2.261218358 -0.331540556 0.07177966 2.127903962 -0.445694266 0.263010675 2.445304196 -0.67733915 0.039536594 2.118729186 -0.618200999 0.404153724 2.403140603 -0.37681862 0.180679642 2.076565704 -0.317680411 0.343615828 2.664904669 -0.877270132 0.331481382 2.725952714 -0.595023991 0.587973802 2.627266942 -0.844108308 0.117222693 2.563608956 -0.850578054 0.368435766 2.505751254 -1.117251143 0.575839425 2.688314994 -0.56186214 0.612793678 2.468113248 -1.084089303 0.105088395 2.6246568 -0.568332044 0.142042686 2.404455238 -1.090559056 0.714768041 2.600102868 -0.653868092 0.42206206 2.61890571 -0.544808081 0.776401484 2.474624974 -0.422780513 0.605121078 2.568379108 -0.898644722 0.973570026 2.470294107 -0.772594578 0.483695218 2.493428387 -0.313720703 1.035203161 2.344816782 -0.541507149 0.312414804 2.587182732 -0.789584797 0.863922751 2.438570505 -1.017371355 0.092299127 2.842933536 -0.574687888 0.218241103 2.995556361 -0.528021806 0.171359011 2.838856903 -0.73128289 0.105605868 2.793883404 -0.406741209 0.031580419 2.652796108 -0.613338076 0.297300995 2.991479656 -0.684616858 0.110640299 2.648719636 -0.76993316 0.231547738 2.946506258 -0.360075163 0.044887058 2.603746006 -0.445391438 0.398922425 2.910689343 -0.282398409 0.338513468 2.950271538 -0.437275966 0.258911793 2.885470391 -0.243480862 0.516191089 2.854261558 -0.351806945 0.443272522 2.813453535 -0.149051539 0.198502805 2.925052585 -0.398358446 0.303261881 2.788234804 -0.110133896 0.455782001 2.893844047 -0.506684512 0.560541156 2.75702598 -0.218460092 0.510804694 3.158687732 -0.552997837 0.360792408 3.202927779 -0.484134138 0.533458023 3.078471576 -0.431319041 0.442270801 3.161903224 -0.683559359 0.628419102 3.060074973 -0.628134046 0.383445625 3.122711526 -0.362455289 0.651072418 2.979858773 -0.506455208 0.29225852 3.206143116 -0.614695655 0.559885218 3.063290389 -0.758695566 0.117097657 3.125637902 -0.41747442 0.200457938 3.240873418 -0.427660887 0.135001416 3.110658524 -0.538306822 0.166455577 3.108434649 -0.306059636 0.081233038 2.987677028 -0.413938055 0.218361711 3.225894273 -0.548493288 0.099136708 2.972697495 -0.534770566 0.249815846 3.223670169 -0.31624616 0.130590947 2.970473778 -0.302523309 0.282317898 3.128248122 -0.717633716 0.275941977 3.22551428 -0.566817259 0.431027526 3.101160522 -0.683390973 0.136223902 3.086833394 -0.686613985 0.290540662 2.982610224 -0.822365914 0.424651616 3.198426546 -0.532574721 0.439250359 2.955522482 -0.788123205 0.129848141 3.184099113 -0.535797581 0.144446799 2.941195344 -0.791346028 0.779728393 1.735431215 -0.617463262 0.503720931 1.763756723 -0.563751634 0.795962463 1.622803356 -0.401720059 0.71713271 1.707696353 -0.851570739 1.022998526 1.607990695 -0.684142599 0.519954771 1.651128715 -0.348008381 1.03923237 1.495362653 -0.468399397 0.441125187 1.736021849 -0.797859055 0.960402768 1.580255823 -0.918250068 0.395857092 3.071615147 -0.670864481 0.323422316 2.76465219 -0.768669185 0.123595762 3.025981511 -0.545336462 0.105014687 2.715132652 -0.527682288 0.085553722 3.180583262 -0.521232078 0.34986713 3.222291508 -0.614920825 0.280254697 2.448962628 -0.73185745 0.197327826 2.416726482 -0.494399326 0.335660107 3.04968028 -0.362805559 0.378079396 2.73145511 -0.344126562 0.486297082 3.083807287 -0.528723345 0.481160195 2.761771833 -0.533321875 0.281890891 3.247931706 -0.349515987 0.403289601 3.280615341 -0.512585395 0.454393639 2.436235186 -0.366998714 0.495264295 2.464240957 -0.615690608 0.226033649 2.130430725 -0.821697533 0.372674716 2.242158869 -0.65027986 0.407093925 2.098028932 -0.937337618 0.107530929 2.057662348 -0.654762856 0.123566531 1.944438331 -0.956894431 0.553735037 2.209757058 -0.765919796 0.304626862 1.912036379 -1.072534399 0.254172012 2.169390458 -0.483345004 0.005063712 1.871670005 -0.789959602 0.528310989 1.864121031 -0.96479998 0.395863129 2.056908252 -0.667330542 0.80021475 1.817569482 -0.789956897 0.221658626 1.761866278 -1.011457398 0.636221661 1.566256854 -1.171753435 0.667766661 2.010356768 -0.492487216 0.908125229 1.519705113 -0.996910209 0.089210485 1.954653492 -0.713987845 0.329568953 1.464001838 -1.218410978 0.174665268 1.853820099 -0.362169775 0.3614969 1.917141981 -0.554153963 0.038537587 1.77471636 -0.540091517 0.357964901 1.800642848 -0.220685719 0.021143435 1.697090008 -0.195915493 0.225369188 1.838038464 -0.732075646 -0.114984392 1.617986799 -0.373837317 0.544796458 1.86396496 -0.412669989 0.204443081 1.643912926 -0.054431576 0.304072213 2.182786701 -0.311131958 0.345153549 2.367448123 -0.502069363 0.125516683 2.108952722 -0.439513313 0.534670698 2.175807281 -0.286823912 0.299740106 1.941060386 -0.193684002 0.166598035 2.293613553 -0.63045057 0.121184577 1.867225773 -0.32206549 0.575752183 2.360468353 -0.477761201 0.530338807 1.934080845 -0.169376033 0.161761989 2.724947737 -0.258283742 0.279395796 2.841046338 -0.443642473 -0.00013112 2.695683488 -0.395673415 0.354251421 2.652716939 -0.197684378 0.065733287 2.537179605 -0.127149227 0.117502632 2.811782471 -0.581032178 -0.096159913 2.507915768 -0.264538899 0.471885039 2.768816214 -0.383043139 0.258222621 2.464949135 -0.066549792 0.612043627 2.860380361 -0.596498454 0.404198121 2.85616323 -0.516050674 0.665317909 2.773914279 -0.433098929 0.533729149 2.832498894 -0.770001737 0.802207506 2.783852747 -0.68408089 0.4574723 2.769697056 -0.352651129 0.855481701 2.697386763 -0.520681293 0.325883689 2.828281696 -0.689554008 0.723892993 2.755971243 -0.857584242 0.208276386 3.018182304 -0.25560946 0.253545683 3.112886618 -0.413080692 0.075468935 2.966983372 -0.335734513 0.368542231 2.994253224 -0.235082312 0.182396408 2.870427321 -0.140222207 0.120738374 3.061687475 -0.493205774 0.049588991 2.819228305 -0.220347135 0.413811662 3.088957333 -0.392553653 0.342662407 2.846498177 -0.119694994 0.515588289 2.169660963 -0.507822581 0.567672291 2.169699309 -0.726331807 0.577161879 1.87534109 -0.414876057 0.635920067 1.574524495 -0.433171336 0.542886054 1.844952006 -0.660117894 0.528613993 1.527591868 -0.712900743 0.500404944 2.470789415 -0.658606929 0.405666232 2.462770926 -0.42352674</float_array><technique_common><accessor source="#TreeSaplingHeld-POSITION-array" count="275" stride="3"><param name="X" type="float"/><param name="Y" type="float"/><param name="Z" type="float"/></accessor></technique_common></source>
        <source id="TreeSaplingHeld-Normal0"><float_array id="TreeSaplingHeld-Normal0-array" count="840">0.12368947 -0.98814424 -0.090949853 0.132003197 -0.886020915 0.444457077 0.053939155 -0.118927777 0.991436711 0.045788677 -0.030108239 0.998497316 0.134966801 -0.800706827 0.583654469 0.080428924 -0.273399526 0.958532153 0.033593017 0.598042656 0.800759946 0.009439804 0.849550345 0.527423077 0.198200443 -0.567857828 0.798908049 0.232870132 -0.683017511 0.692285043 0.117091497 0.66955971 0.733470774 0.272602853 -0.313683517 0.909555021 0.440129629 -0.613669332 0.655511907 0.456691724 -0.697672081 0.551984 0.285406517 0.804633758 0.520679974 0.33182042 0.578832137 0.744881579 0.308852044 0.818644078 0.484182082 0.541462472 -0.662688054 0.517361513 0.545401551 -0.65931407 0.517534641 0.436504414 0.312137206 0.843821226 0.470902105 0.243063694 0.84803965 0.490619566 0.403248837 0.772452469 0.640129686 -0.033650935 0.767529543 0.642501955 -0.031201657 0.765648545 0.781516993 -0.62317592 0.029714689 0.801438378 -0.445168872 0.399401053 0.84119477 -0.532374612 0.094702856 0.823426175 -0.122138703 0.554122253 0.860692313 -0.387720703 0.329971814 0.903116983 -0.158662916 0.399006008 0.932436289 0.356624124 -0.05815326 0.987392015 0.152315706 -0.043092153 0.99162992 0.126503024 -0.02582803 0.128271306 -0.942455812 0.308745064 0.021985444 0.031094234 0.999274631 -0.099191447 0.873858403 0.475954356 -0.045822455 0.455757858 0.88892355 0.06099506 -0.486401335 0.871603892 -0.09247743 0.64542394 0.758205686 0.033040416 -0.454080024 0.890348057 -0.118963138 0.451888316 0.884106737 -0.116436394 0.337907167 0.93394931 -0.163238387 0.57294163 0.803175646 -0.163606504 0.563525204 0.809735918 -0.070027597 -0.175867798 0.981919881 -0.174344521 0.598299651 0.782075134 -0.264702903 0.314469042 0.911614828 -0.307565289 0.06203607 0.949502564 -0.231093158 -0.972893451 -0.008618893 -0.276198445 -0.662919384 0.695882396 -0.571230069 0.815384361 0.094045474 -0.398021714 -0.561643125 0.725352132 -0.602978687 0.792470323 0.091692367 -0.543666545 0.069903924 0.836385156 -0.591920035 0.398552245 0.70056176 -0.568444825 -0.149954711 0.808940088 -0.710517287 0.327863635 0.622632012 -0.660446085 -0.298168863 0.689134456 -0.723784918 0.117060726 0.68002366 -0.687610715 -0.506448862 0.520289395 -0.991629922 -0.126503019 0.025827971 0.080425006 -0.447868967 0.890474709 0.239556207 -0.504784434 0.8293404 0.258354889 -0.375197156 0.890213371 0.370315915 0.13996078 0.918301205 0.325492939 0.710023989 0.62443597 0.49239748 -0.077565483 0.866907329 0.566273855 -0.741161228 0.360574479 0.610280858 0.317213608 0.725901372 0.78151974 -0.623175271 0.029655986 0.841210307 -0.532354913 0.094675578 0.74696539 0.520541426 0.413617371 0.987393333 0.152316061 -0.043060693 0.123687277 -0.98814452 -0.090949796 -0.110008345 -0.422189662 0.899807787 -0.306345458 0.021061307 0.951687387 -0.206914562 -0.92038798 0.331771503 -0.334021594 -0.127796173 0.933861721 -0.364921329 -0.930527508 0.030837981 -0.388750571 -0.918985969 -0.06586185 -0.79343715 0.6080483 0.02710634 -0.834645906 0.099889319 0.541653336 -0.012949184 0.815489776 0.578626602 0.205307441 -0.59248711 0.778978741 0.165348872 0.020194302 0.986028367 0.185804755 0.304569059 0.93419178 0.279463614 -0.214198227 0.935958978 0.366608274 0.216970884 0.904722062 0.40278361 -0.033801123 0.914670896 0.466025615 -0.479499732 0.743572548 0.473981979 -0.446310524 0.759044135 0.461054446 -0.076579733 0.884061278 0.568703971 -0.762639888 0.308149631 0.503113681 -0.125992402 0.854986865 0.388724789 0.918997725 0.065849976 0.498147807 0.232317602 0.835390504 0.584029029 -0.346329345 0.734143091 0.581471728 0.046906243 0.812213294 0.560646954 0.26092528 0.785870849 0.672738393 -0.222775922 0.705545139 0.683448582 -0.202120218 0.701459517 0.829554338 -0.203167494 0.520156294 -0.106188711 0.499598962 0.859723697 -0.261543741 0.497534788 0.827075575 -0.30355237 0.697551058 0.649059689 -0.255275416 0.24056841 0.93646212 -0.311776739 0.622340355 0.717974754 -0.290874192 0.31565334 0.903191659 -0.234975248 -0.313651834 0.920004978 -0.45865213 0.868461195 0.188184422 -0.382697939 0.350308584 0.854883725 -0.321607561 -0.444706203 0.835945554 -0.539495451 0.694079312 0.476653508 -0.342621219 -0.878898432 0.331885895 -0.441137856 0.003148764 0.897433829 -0.571260168 0.815360705 0.094067742 -0.442785763 -0.426144147 0.788886515 -0.45515949 -0.730915848 0.508519283 -0.793397303 0.608100554 0.02710048 -0.686244732 -0.183726578 0.703784564 -0.696224701 -0.191308383 0.691861452 -0.802611239 -0.207019741 0.559426516 -0.919064391 0.079589884 0.38598717 0.123695029 -0.988143531 -0.090949998 0.037907076 0.54988613 0.834378989 0.210910275 0.626950672 0.749966473 0.297772776 0.235296285 0.925184864 0.385931739 -0.38404564 0.838788197 0.511378027 -0.362846882 0.778995927 0.589620852 -0.380359856 0.712512197 0.856767701 -0.515699767 0.001690178 0.932433598 0.356631728 -0.058149764 0.123688775 -0.988144329 -0.090949835 -0.055183543 -0.457813276 0.887334086 -0.267737875 0.5621147 0.782523798 -0.126477303 -0.747952119 0.651591221 -0.261597515 -0.304971373 0.915728782 -0.364922481 -0.930527887 0.03081289 -0.486376558 -0.801516438 0.347863829 -0.671441251 0.200879925 0.713311925 -0.86060889 -0.479855128 0.170561997 0.163974985 -0.774363248 0.611124999 0.168378893 -0.789742521 0.58987736 0.205047078 -0.649867865 0.731865735 0.173005322 -0.355905965 0.918368174 0.220016366 -0.687568942 0.691983922 0.149655276 0.150990908 0.977141261 0.268630827 -0.793654713 0.545847667 0.297918863 -0.552670442 0.778331378 0.17481833 0.530784706 0.8292805 0.223680491 0.376821086 0.898873132 0.226993912 0.375204908 0.898718555 0.258065392 0.175179348 0.950112862 0.350465471 -0.137666961 0.926402592 0.376423701 -0.223667624 0.89904282 0.393407246 -0.171273372 0.903269711 0.333769841 0.551350309 0.76459828 0.438710751 -0.038296254 0.897811937 0.507305134 -0.556572963 0.657927076 0.41592123 0.221544452 0.882002033 0.521823815 -0.369230889 0.769004848 0.371766911 0.810343944 0.452915065 0.602961356 -0.792484737 -0.091681756 0.512569943 0.267666483 0.81585949 0.6257516 -0.690538053 0.3627563 0.655037407 -0.30303514 0.692167393 0.664925481 -0.320448266 0.674675487 0.856752498 -0.515724928 0.00171938 0.960917673 -0.276385654 -0.015754257 -0.110673354 0.192341224 0.975067312 -0.071814855 -0.412726311 0.908019614 -0.062961692 -0.746338348 0.662581992 -0.096412589 -0.60980646 0.786664283 -0.286768507 0.803083058 0.522323104 -0.309854864 0.750961383 0.583135459 -0.183424397 -0.315479456 0.931036091 -0.458622237 0.868478789 0.18817608 -0.231001487 -0.972915483 -0.008589286 -0.467409096 0.655262151 0.593430915 -0.449848686 0.471815428 0.758304927 -0.44914578 0.363509373 0.816167265 -0.410756902 -0.115323978 0.904421996 -0.388753474 -0.511456023 0.766344226 -0.409497659 -0.637087861 0.653016634 -0.420383027 -0.638114311 0.645049019 -0.678612099 0.108326294 0.72646475 -0.693900723 -0.494090279 0.523809682 -0.783296892 0.027413494 0.621043057 -0.951535288 0.296247862 0.082569975 0.012675724 0.694836051 0.719056457 0.209127939 0.159525488 0.964788642 0.271447473 0.158510321 0.94931067 0.351499505 -0.41111936 0.841087968 0.325075252 -0.121083118 0.937904558 0.314533455 0.688963601 0.652991472 0.537976769 -0.308295052 0.784560487 0.716670393 -0.412044502 0.562674752 0.921283548 -0.378107834 -0.090945533 0.921288202 -0.378105895 -0.090906441 0.991395175 -0.08342862 -0.100872553 0.123687865 -0.988144445 -0.090949811 -0.130080922 0.717795651 0.683994413 -0.126173165 0.477122573 0.869732363 -0.099845802 -0.564753797 0.819197146 -0.283806069 0.693010435 0.662714608 -0.134441628 -0.740493876 0.658478753 -0.30840302 0.45223654 0.836880929 -0.283930658 0.163609284 0.944783247 -0.450460822 0.651936221 0.609970665 -0.496756571 0.447845925 0.743415723 -0.717824683 -0.589091954 0.371077344 -0.781226639 -0.275542366 0.560144038 -0.883235542 0.055294184 0.46565817 -0.951558076 0.296145931 0.082672945 0.174067909 -0.732010067 0.658681732 0.141523512 -0.427440915 0.892897172 0.021824849 0.736665546 0.675904985 0.29375802 -0.131924073 0.946732415 0.330384018 0.143419793 0.932886469 0.419551554 -0.297187811 0.857703853 0.49090906 -0.563667497 0.664294548 0.50953431 -0.411771437 0.755525691 0.500566025 -0.022888211 0.865395738 0.606919688 -0.364575979 0.706210201 0.494798285 0.550616689 0.672306417 0.588196451 0.010978627 0.808643558 0.612095193 -0.018561793 0.790566211 0.65748534 -0.138406734 0.740646071 0.720984583 -0.296438022 0.626343141 0.71755704 -0.081733422 0.69168746 0.75476911 0.059807643 0.653258476 0.920603285 -0.384562286 -0.067833913 0.796902682 0.603665903 0.023099651 0.991395597 -0.08345601 -0.100845749 0.091477549 -0.954212365 0.284799263 -0.059320836 0.2896824 0.955282757 -0.003979043 -0.930939616 0.365151474 -0.053319823 -0.594556373 0.802284062 -0.033973724 -0.85215814 0.522180324 -0.192173983 0.156808809 0.968751856 -0.276095365 0.653450208 0.704822087 -0.290245634 0.634357316 0.716483264 -0.1246703 -0.698729205 0.704439362 -0.137896979 -0.714203212 0.686220223 -0.169638272 -0.84900594 0.500411601 -0.340046144 0.177418428 0.923521154 -0.401230526 0.329904708 0.854503919 -0.479994524 0.411540763 0.774751223 -0.590862455 0.295602111 0.750667004 -0.509742026 -0.739449218 0.439747565 -0.575307871 -0.474568273 0.666187517 -0.585240499 -0.467476611 0.662539943 -0.638981144 -0.756016651 0.141922232 -0.63903946 -0.75597663 0.141872843 -0.801936604 -0.22667706 0.552734289 -0.796902686 -0.603665892 -0.023099769 -0.920603285 0.384562286 0.067833913 -0.8605739 -0.479894456 0.170627881 -0.896759962 -0.1505188 0.416131783 -0.890966542 -0.223010946 0.395530958 -0.123641956 0.988150427 0.090947233 0.229504085 -0.432228598 0.872070131 0.294764826 -0.876579611 0.380423294 0.201773202 0.474080831 0.857050139 0.282999478 -0.122355165 0.951283611 0.362023456 -0.406177304 0.839022655 0.705902054 -0.28343419 0.649128146 0.960916601 -0.276392988 -0.015690808 0.925938717 0.082008713 0.368662532 0.123641965 -0.988150448 -0.090946996 -0.391372502 0.029286819 0.919766192 -0.344790287 -0.368538463 0.863307048 -0.448149543 0.129804359 0.884484491 -0.39933442 -0.712486302 0.576970788 -0.56528099 0.10368146 0.81835662 -0.655926677 -0.001305869 0.754823482 -0.807627993 0.34961644 0.474874057 -0.831526977 0.319029691 0.454733926 -0.780525382 -0.5049981 0.368452231 -0.877233404 -0.24414371 0.413346589</float_array><technique_common><accessor source="#TreeSaplingHeld-Normal0-array" count="280" stride="3"><param name="X" type="float"/><param name="Y" type="float"/><param name="Z" type="float"/></accessor></technique_common></source>
        <source id="TreeSaplingHeld-UV0"><float_array id="TreeSaplingHeld-UV0-array" count="602">0 0 0 0 0 0 0 0 0 0 0 0 0 0 0 0 0 0 0 0 0 0 0 0 0.002496004 0.464728594 0.775891542 0.464728594 0.002496004 0.48419711 0.775891542 0.48419711 0.002496004 0.503663778 0.775891542 0.503663778 0.002496004 0.523129106 0.775891542 0.523129106 0.002496004 0.542593896 0.775891542 0.542593896 0.002496004 0.562057436 0.775891542 0.562057436 0.936362863 0.569446266 0.914653838 0.575902283 0.958069861 0.575905263 0.936362863 0.577889264 0.002496004 0.581520975 0.775891542 0.581520975 0.919084847 0.583235204 0.953638852 0.583238304 0.898982882 0.592046201 0.973736882 0.592052281 0.906410873 0.596291244 0.966309845 0.596296251 0.002496004 0.600984037 0.775891542 0.600984037 0.893248856 0.613753259 0.979467869 0.61375922 0.901822865 0.613784254 0.970894873 0.61378926 0.002496004 0.620447516 0.775891542 0.620447516 0.906456828 0.631156206 0.96625787 0.631161213 0.898995876 0.635408223 0.973717868 0.635415256 0.002496004 0.63991189 0.775891542 0.63991189 0.91909188 0.643849254 0.953620851 0.64385128 0.936355829 0.64849323 0.914766848 0.651279271 0.957943857 0.651282251 0.936354876 0.657093227 0.002496004 0.659377277 0.775891542 0.659377277 0.002496004 0.678844333 0.775891542 0.678844333 0.002496004 0.698312461 0.775891542 0.698312461 0.007506624 0.727371275 0.007506624 0.727371275 0.007506624 0.727371275 0.007506624 0.727371275 0.007506624 0.727371275 0.007506624 0.727371275 0.007506624 0.727371275 0.007506624 0.727371275 0.007506624 0.727371275 0.007506624 0.727371275 0.007506624 0.727371275 0.007506624 0.727371275 0.007506624 0.727371275 0.007506624 0.727371275 0.007506624 0.727371275 0.007506624 0.727371275 0.007506624 0.727371275 0.007506624 0.727371275 0.007506624 0.727371275 0.007506624 0.727371275 0.007506624 0.727371275 0.007506624 0.727371275 0.007506629 0.727371275 0.111468121 0.727371275 0.111468121 0.727371275 0.111468121 0.727371275 0.111468121 0.727371275 0.111468121 0.727371275 0.111468121 0.727371275 0.111468121 0.727371275 0.111468121 0.727371275 0.111468121 0.727371275 0.111468121 0.727371275 0.111468121 0.727371275 0.111468121 0.727371275 0.111468121 0.727371275 0.111468121 0.727371275 0.111468121 0.727371275 0.111468121 0.727371275 0.111468121 0.727371275 0.111468121 0.727371275 0.111468121 0.727371275 0.111468121 0.727371275 0.111468121 0.727371275 0.111468121 0.727371275 0.111468121 0.727371275 0.215429634 0.727371275 0.215429634 0.727371275 0.215429634 0.727371275 0.215429634 0.727371275 0.215429634 0.727371275 0.215429634 0.727371275 0.215429634 0.727371275 0.215429634 0.727371275 0.215429634 0.727371275 0.215429634 0.727371275 0.215429634 0.727371275 0.215429634 0.727371275 0.215429634 0.727371275 0.215429634 0.727371275 0.215429634 0.727371275 0.215429634 0.727371275 0.215429634 0.727371275 0.215429634 0.727371275 0.215429634 0.727371275 0.215429634 0.727371275 0.215429634 0.727371275 0.215429634 0.727371275 0.215429649 0.727371275 0.399531662 0.72782588 0.681675136 0.72782588 0.227722406 0.727825999 0.577225745 0.727825999 0.399531543 0.727826118 0.681675017 0.727826118 0.577077091 0.727826238 0.227722406 0.727826297 0.227722466 0.727826476 0.227722466 0.727826595 0.378298342 0.727826595 0.531429946 0.727826595 0.531430066 0.727826595 0.378298342 0.727826655 0.681673706 0.727826655 0.681673825 0.727826655 0.007506624 0.851656795 0.007506624 0.851656795 0.007506624 0.851656795 0.007506624 0.851656795 0.007506624 0.851656795 0.007506624 0.851656795 0.007506624 0.851656795 0.007506624 0.851656795 0.007506624 0.851656795 0.007506624 0.851656795 0.007506624 0.851656795 0.007506624 0.851656795 0.007506624 0.851656795 0.007506624 0.851656795 0.007506624 0.851656795 0.007506624 0.851656795 0.007506624 0.851656795 0.007506624 0.851656795 0.007506624 0.851656795 0.007506624 0.851656795 0.007506624 0.851656795 0.007506624 0.851656795 0.007506629 0.851656795 0.111468121 0.851656795 0.111468121 0.851656795 0.111468121 0.851656795 0.111468121 0.851656795 0.111468121 0.851656795 0.111468121 0.851656795 0.111468121 0.851656795 0.111468121 0.851656795 0.111468121 0.851656795 0.111468121 0.851656795 0.111468121 0.851656795 0.111468121 0.851656795 0.111468121 0.851656795 0.111468121 0.851656795 0.111468121 0.851656795 0.111468121 0.851656795 0.111468121 0.851656795 0.111468121 0.851656795 0.111468121 0.851656795 0.111468121 0.851656795 0.111468121 0.851656795 0.111468121 0.851656795 0.111468121 0.851656795 0.215429634 0.851656795 0.215429634 0.851656795 0.215429634 0.851656795 0.215429634 0.851656795 0.215429634 0.851656795 0.215429634 0.851656795 0.215429634 0.851656795 0.215429634 0.851656795 0.215429634 0.851656795 0.215429634 0.851656795 0.215429634 0.851656795 0.215429634 0.851656795 0.215429634 0.851656795 0.215429634 0.851656795 0.215429634 0.851656795 0.215429634 0.851656795 0.215429634 0.851656795 0.215429634 0.851656795 0.215429634 0.851656795 0.215429634 0.851656795 0.215429634 0.851656795 0.215429634 0.851656795 0.215429649 0.851656795 0.227722466 0.908913493 0.378298342 0.908913493 0.531430185 0.908913493 0.681673706 0.908913612 0.378298342 0.908914506 0.227722466 0.908914566 0.531430066 0.908914566 0.681673825 0.908914626 0.681675017 0.908914804 0.227722347 0.908914864 0.399531543 0.908914864 0.577225626 0.908914864 0.681675136 0.908915758 0.227722466 0.908915818 0.399531662 0.908915818 0.577076972 0.908915818 0.007506624 0.975942314 0.007506624 0.975942314 0.007506624 0.975942314 0.007506624 0.975942314 0.007506624 0.975942314 0.007506624 0.975942314 0.007506624 0.975942314 0.007506624 0.975942314 0.007506624 0.975942314 0.007506624 0.975942314 0.007506624 0.975942314 0.007506624 0.975942314 0.007506624 0.975942314 0.007506624 0.975942314 0.007506624 0.975942314 0.007506624 0.975942314 0.007506624 0.975942314 0.007506624 0.975942314 0.007506624 0.975942314 0.007506624 0.975942314 0.007506624 0.975942314 0.007506624 0.975942314 0.007506629 0.975942314 0.111468121 0.975942314 0.111468121 0.975942314 0.111468121 0.975942314 0.111468121 0.975942314 0.111468121 0.975942314 0.111468121 0.975942314 0.111468121 0.975942314 0.111468121 0.975942314 0.111468121 0.975942314 0.111468121 0.975942314 0.111468121 0.975942314 0.111468121 0.975942314 0.111468121 0.975942314 0.111468121 0.975942314 0.111468121 0.975942314 0.111468121 0.975942314 0.111468121 0.975942314 0.111468121 0.975942314 0.111468121 0.975942314 0.111468121 0.975942314 0.111468121 0.975942314 0.111468121 0.975942314 0.111468121 0.975942314 0.215429634 0.975942314 0.215429634 0.975942314 0.215429634 0.975942314 0.215429634 0.975942314 0.215429634 0.975942314 0.215429634 0.975942314 0.215429634 0.975942314 0.215429634 0.975942314 0.215429634 0.975942314 0.215429634 0.975942314 0.215429634 0.975942314 0.215429634 0.975942314 0.215429634 0.975942314 0.215429634 0.975942314 0.215429634 0.975942314 0.215429634 0.975942314 0.215429634 0.975942314 0.215429634 0.975942314 0.215429634 0.975942314 0.215429634 0.975942314 0.215429634 0.975942314 0.215429634 0.975942314 0.215429649 0.975942314</float_array><technique_common><accessor source="#TreeSaplingHeld-UV0-array" count="301" stride="2"><param name="S" type="float"/><param name="T" type="float"/></accessor></technique_common></source>
        <vertices id="TreeSaplingHeld-VERTEX"><input semantic="POSITION" source="#TreeSaplingHeld-POSITION"/></vertices>
        <polylist count="276" material="poleplant"><input semantic="VERTEX" offset="0" source="#TreeSaplingHeld-VERTEX"/><input semantic="NORMAL" offset="1" source="#TreeSaplingHeld-Normal0"/><input semantic="TEXCOORD" offset="2" set="0" source="#TreeSaplingHeld-UV0"/><vcount>3 3 3 3 3 3 3 3 3 3 3 3 3 3 3 3 3 3 3 3 3 3 3 3 3 3 3 3 3 3 3 3 3 3 3 3 3 3 3 3 3 3 3 3 3 3 3 3 3 3 3 3 3 3 3 3 3 3 3 3 3 3 3 3 3 3 3 3 3 3 3 3 3 3 3 3 3 3 3 3 3 3 3 3 3 3 3 3 3 3 3 3 3 3 3 3 3 3 3 3 3 3 3 3 3 3 3 3 3 3 3 3 3 3 3 3 3 3 3 3 3 3 3 3 3 3 3 3 3 3 3 3 3 3 3 3 3 3 3 3 3 3 3 3 3 3 3 3 3 3 3 3 3 3 3 3 3 3 3 3 3 3 3 3 3 3 3 3 3 3 3 3 3 3 3 3 3 3 3 3 3 3 3 3 3 3 3 3 3 3 3 3 3 3 3 3 3 3 3 3 3 3 3 3 3 3 3 3 3 3 3 3 3 3 3 3 3 3 3 3 3 3 3 3 3 3 3 3 3 3 3 3 3 3 3 3 3 3 3 3 3 3 3 3 3 3 3 3 3 3 3 3 3 3 3 3 3 3 3 3 3 3 3 3 3 3 3 3 3 3 3 3 3 3 3 3</vcount><p>6 257 145 7 140 223 0 252 222 6 257 145 0 252 222 1 253 142 4 78 220 2 48 221 3 177 139 4 78 220 3 177 139 5 137 144 5 137 144 1 253 142 0 252 222 5 137 144 0 252 222 4 78 220 10 71 29 8 232 28 9 94 22 10 71 29 9 94 22 13 161 23 12 268 37 11 32 36 8 232 28 12 268 37 8 232 28 10 71 29 13 161 23 9 94 22 14 260 20 13 161 23 14 260 20 15 35 21 15 35 21 14 260 20 16 52 18 15 35 21 16 52 18 17 112 19 17 112 19 16 52 18 18 256 16 17 112 19 18 256 16 19 277 17 19 277 17 18 256 16 20 60 14 19 277 17 20 60 14 21 258 15 21 258 15 20 60 14 22 255 12 21 258 15 22 255 12 23 210 13 11 32 36 12 268 37 24 28 43 11 32 36 24 28 43 25 231 42 25 231 42 24 28 43 26 92 49 25 231 42 26 92 49 27 162 48 27 162 48 26 92 49 28 33 57 27 162 48 28 33 57 29 269 56 29 269 56 28 33 57 30 113 59 29 269 56 30 113 59 31 79 58 31 79 58 30 113 59 23 210 61 31 79 58 23 210 61 22 255 60 32 61 52 33 34 27 34 74 51 32 61 52 34 74 51 30 113 54 32 61 52 30 113 54 28 33 55 35 63 50 32 61 52 28 33 55 35 63 50 28 33 55 26 92 53 35 63 50 33 34 27 32 61 52 34 74 51 36 136 45 23 210 47 34 74 51 23 210 47 30 113 54 33 34 27 36 136 45 34 74 51 21 258 39 23 210 47 36 136 45 21 258 39 36 136 45 37 77 41 33 34 27 37 77 41 36 136 45 19 277 33 21 258 39 37 77 41 19 277 33 37 77 41 38 47 35 33 34 27 38 47 35 37 77 41 17 112 26 19 277 33 38 47 35 17 112 26 38 47 35 39 46 31 33 34 27 39 46 31 38 47 35 15 35 24 17 112 26 39 46 31 15 35 24 39 46 31 33 34 27 13 161 25 15 35 24 33 34 27 13 161 25 33 34 27 40 150 30 10 71 32 13 161 25 40 150 30 10 71 32 40 150 30 41 218 34 12 268 38 10 71 32 41 218 34 12 268 38 41 218 34 42 88 40 40 150 30 33 34 27 41 218 34 41 218 34 33 34 27 42 88 40 43 154 44 33 34 27 35 63 50 42 88 40 33 34 27 43 154 44 42 88 40 43 154 44 24 28 46 42 88 40 24 28 46 12 268 38 43 154 44 35 63 50 26 92 53 43 154 44 26 92 53 24 28 46 46 238 193 44 147 170 45 9 85 46 238 193 45 9 85 49 171 108 45 9 85 44 147 170 47 18 147 45 9 85 47 18 147 51 158 62 48 262 255 44 147 170 46 238 193 48 262 255 46 238 193 50 236 278 47 18 147 44 147 170 48 262 255 47 18 147 48 262 255 52 67 232 55 17 194 53 196 171 54 223 86 55 17 194 54 223 86 58 12 109 54 223 86 53 196 171 56 27 148 54 223 86 56 27 148 60 229 63 57 25 256 53 196 171 55 17 194 57 25 256 55 17 194 59 164 279 56 27 148 53 196 171 57 25 256 56 27 148 57 25 256 61 29 233 64 21 195 62 263 172 63 85 87 64 21 195 63 85 87 67 20 110 63 85 87 62 263 172 65 102 149 63 85 87 65 102 149 69 41 64 66 125 257 62 263 172 64 21 195 66 125 257 64 21 195 68 224 280 65 102 149 62 263 172 66 125 257 65 102 149 66 125 257 70 38 234 73 104 196 71 206 173 72 202 88 73 104 196 72 202 88 76 201 111 72 202 88 71 206 173 74 207 150 72 202 88 74 207 150 78 169 65 75 247 258 71 206 173 73 104 196 75 247 258 73 104 196 77 178 281 74 207 150 71 206 173 75 247 258 74 207 150 75 247 258 79 272 235 82 106 197 80 180 174 81 107 89 82 106 197 81 107 89 85 42 112 81 107 89 80 180 174 83 53 151 81 107 89 83 53 151 87 270 66 84 54 259 80 180 174 82 106 197 84 54 259 82 106 197 86 208 282 83 53 151 80 180 174 84 54 259 83 53 151 84 54 259 88 185 236 91 96 198 89 155 175 90 11 90 91 96 198 90 11 90 94 89 113 90 11 90 89 155 175 92 84 152 90 11 90 92 84 152 96 2 67 93 222 260 89 155 175 91 96 198 93 222 260 91 96 198 95 100 283 92 84 152 89 155 175 93 222 260 92 84 152 93 222 260 97 191 237 100 203 199 98 83 176 99 261 91 100 203 199 99 261 91 103 170 114 99 261 91 98 83 176 101 220 153 99 261 91 101 220 153 105 221 68 102 214 261 98 83 176 100 203 199 102 214 261 100 203 199 104 242 284 101 220 153 98 83 176 102 214 261 101 220 153 102 214 261 106 13 238 109 120 200 107 250 177 108 116 92 109 120 200 108 116 92 112 55 115 108 116 92 107 250 177 110 273 154 108 116 92 110 273 154 114 49 69 111 59 262 107 250 177 109 120 200 111 59 262 109 120 200 113 254 285 110 273 154 107 250 177 111 59 262 110 273 154 111 59 262 115 249 239 118 149 201 116 40 178 117 235 93 118 149 201 117 235 93 121 151 116 117 235 93 116 40 178 119 246 155 117 235 93 119 246 155 123 245 70 120 45 263 116 40 178 118 149 201 120 45 263 118 149 201 122 10 286 119 246 155 116 40 178 120 45 263 119 246 155 120 45 263 124 179 240 127 195 202 125 157 179 126 264 94 127 195 202 126 264 94 130 127 117 126 264 94 125 157 179 128 126 156 126 264 94 128 126 156 132 146 71 129 97 264 125 157 179 127 195 202 129 97 264 127 195 202 131 99 287 128 126 156 125 157 179 129 97 264 128 126 156 129 97 264 133 19 241 136 56 203 134 187 180 135 275 95 136 56 203 135 275 95 139 248 118 135 275 95 134 187 180 137 211 157 135 275 95 137 211 157 141 57 72 138 212 265 134 187 180 136 56 203 138 212 265 136 56 203 140 276 288 137 211 157 134 187 180 138 212 265 137 211 157 138 212 265 142 279 242 145 215 204 143 219 181 144 153 96 145 215 204 144 153 96 148 5 119 144 153 96 143 219 181 146 227 158 144 153 96 146 227 158 150 225 73 147 90 266 143 219 181 145 215 204 147 90 266 145 215 204 149 8 289 146 227 158 143 219 181 147 90 266 146 227 158 147 90 266 151 266 243 154 228 205 152 22 182 153 93 97 154 228 205 153 93 97 157 129 120 153 93 97 152 22 182 155 95 159 153 93 97 155 95 159 159 64 74 156 230 267 152 22 182 154 228 205 156 230 267 154 228 205 158 101 290 155 95 159 152 22 182 156 230 267 155 95 159 156 230 267 160 68 244 163 81 206 161 121 183 162 119 98 163 81 206 162 119 98 166 58 121 162 119 98 161 121 183 164 186 160 162 119 98 164 186 160 168 251 75 165 259 268 161 121 183 163 81 206 165 259 268 163 81 206 167 122 291 164 186 160 161 121 183 165 259 268 164 186 160 165 259 268 169 278 245 172 194 207 170 189 184 171 124 99 172 194 207 171 124 99 175 156 122 171 124 99 170 189 184 173 241 161 171 124 99 173 241 161 177 103 76 174 82 269 170 189 184 172 194 207 174 82 269 172 194 207 176 14 292 173 241 161 170 189 184 174 82 269 173 241 161 174 82 269 178 174 246 181 128 208 179 91 185 180 217 100 181 128 208 180 217 100 184 192 123 180 217 100 179 91 185 182 87 162 180 217 100 182 87 162 186 190 77 183 226 270 179 91 185 181 128 208 183 226 270 181 128 208 185 165 293 182 87 162 179 91 185 183 226 270 182 87 162 183 226 270 187 163 247 14 0 3 9 0 1 8 0 0 14 0 3 8 0 0 11 0 2 29 0 10 22 0 7 20 0 6 29 200 10 18 200 5 16 200 4 14 123 3 29 123 10 16 123 4 25 0 8 29 0 10 11 0 2 27 0 9 29 0 10 25 0 8 31 0 11 22 0 7 29 0 10 14 132 3 11 132 2 29 132 10 29 73 10 20 73 6 18 73 5 190 50 137 188 115 231 189 118 230 190 50 137 189 118 230 191 80 135 190 50 137 192 109 136 193 176 228 190 50 137 193 176 228 188 115 231 195 213 138 191 80 135 189 118 230 195 213 138 189 118 230 194 188 229 198 167 134 196 130 227 197 198 226 198 167 134 197 198 226 199 197 131 201 70 132 200 26 224 196 130 227 201 70 132 196 130 227 198 167 134 203 199 133 199 197 131 197 198 226 203 199 133 197 198 226 202 233 225 206 43 209 204 110 186 205 105 101 206 43 209 205 105 101 209 36 124 205 105 101 204 110 186 207 274 163 205 105 101 207 274 163 211 114 78 208 209 271 204 110 186 206 43 209 208 209 271 206 43 209 210 240 294 207 274 163 204 110 186 208 209 271 207 274 163 208 209 271 212 139 248 215 65 210 213 216 187 214 6 102 215 65 210 214 6 102 218 15 125 214 6 102 213 216 187 216 204 164 214 6 102 216 204 164 220 134 79 217 7 272 213 216 187 215 65 210 217 7 272 215 65 210 219 16 295 216 204 164 213 216 187 217 7 272 216 204 164 217 7 272 221 173 249 224 75 211 222 44 188 223 3 103 224 75 211 223 3 103 227 239 126 223 3 103 222 44 188 225 144 165 223 3 103 225 144 165 229 86 80 226 175 273 222 44 188 224 75 211 226 175 273 224 75 211 228 181 296 225 144 165 222 44 188 226 175 273 225 144 165 226 175 273 230 37 250 233 117 212 231 244 189 232 135 104 233 117 212 232 135 104 236 183 127 232 135 104 231 244 189 234 1 166 232 135 104 234 1 166 238 142 81 235 76 274 231 244 189 233 117 212 235 76 274 233 117 212 237 138 297 234 1 166 231 244 189 235 76 274 234 1 166 235 76 274 239 234 251 242 111 213 240 237 190 241 39 105 242 111 213 241 39 105 245 108 128 241 39 105 240 237 190 243 145 167 241 39 105 243 145 167 247 148 82 244 243 275 240 237 190 242 111 213 244 243 275 242 111 213 246 51 298 243 145 167 240 237 190 244 243 275 243 145 167 244 243 275 248 4 252 251 160 169 249 66 191 250 193 106 251 160 169 250 193 106 254 265 84 250 193 106 249 66 191 252 159 215 250 193 106 252 159 215 256 152 130 253 23 276 249 66 191 251 160 169 253 23 276 251 160 169 255 166 254 252 159 215 249 66 191 253 23 276 252 159 215 253 23 276 257 98 300 260 182 214 258 172 192 259 133 107 260 182 214 259 133 107 263 271 129 259 133 107 258 172 192 261 143 168 259 133 107 261 143 168 265 62 83 262 205 277 258 172 192 260 182 214 262 205 277 260 182 214 264 184 299 261 143 168 258 172 192 262 205 277 261 143 168 262 205 277 266 141 253 273 24 146 274 69 219 267 168 218 273 24 146 267 168 218 268 267 143 271 31 141 269 72 217 270 30 216 271 31 141 270 30 216 272 131 140 268 267 143 267 168 218 269 72 217 268 267 143 269 72 217 271 31 141</p></polylist>
      </mesh></geometry></library_geometries>
  <library_controllers><controller id="TreeSaplingHeldController"><skin source="#TreeSaplingHeld-lib">
    <bind_shape_matrix>0.96581 0 -0.259251 0.003468 0 1 0 0 0.259251 0 0.96581 -0.206261 0 0 0 1</bind_shape_matrix>
    <source id="TreeSaplingHeldController-Joints"><Name_array id="TreeSaplingHeldController-Joints-array" count="1">root_bucket_jnt</Name_array><technique_common><accessor source="#TreeSaplingHeldController-Joints-array" count="1" stride="1"><param name="JOINT" type="Name"/></accessor></technique_common></source>
    <source id="TreeSaplingHeldController-Matrices"><float_array id="TreeSaplingHeldController-Matrices-array" count="16">1 0 0 0 0 1 0 0 0 0 1 0 0 0 0 1</float_array><technique_common><accessor source="#TreeSaplingHeldController-Matrices-array" count="1" stride="16"><param name="TRANSFORM" type="float4x4"/></accessor></technique_common></source>
    <source id="TreeSaplingHeldController-Weights"><float_array id="TreeSaplingHeldController-Weights-array" count="275">1 1 1 1 1 1 1 1 1 1 1 1 1 1 1 1 1 1 1 1 1 1 1 1 1 1 1 1 1 1 1 1 1 1 1 1 1 1 1 1 1 1 1 1 1 1 1 1 1 1 1 1 1 1 1 1 1 1 1 1 1 1 1 1 1 1 1 1 1 1 1 1 1 1 1 1 1 1 1 1 1 1 1 1 1 1 1 1 1 1 1 1 1 1 1 1 1 1 1 1 1 1 1 1 1 1 1 1 1 1 1 1 1 1 1 1 1 1 1 1 1 1 1 1 1 1 1 1 1 1 1 1 1 1 1 1 1 1 1 1 1 1 1 1 1 1 1 1 1 1 1 1 1 1 1 1 1 1 1 1 1 1 1 1 1 1 1 1 1 1 1 1 1 1 1 1 1 1 1 1 1 1 1 1 1 1 1 1 1 1 1 1 1 1 1 1 1 1 1 1 1 1 1 1 1 1 1 1 1 1 1 1 1 1 1 1 1 1 1 1 1 1 1 1 1 1 1 1 1 1 1 1 1 1 1 1 1 1 1 1 1 1 1 1 1 1 1 1 1 1 1 1 1 1 1 1 1 1 1 1 1 1 1 1 1 1 1 1 1 1 1 1 1 1 1</float_array><technique_common><accessor source="#TreeSaplingHeldController-Weights-array" count="275" stride="1"><param name="WEIGHT" type="float"/></accessor></technique_common></source>
    <joints><input semantic="JOINT" source="#TreeSaplingHeldController-Joints"/><input semantic="INV_BIND_MATRIX" source="#TreeSaplingHeldController-Matrices"/></joints>
    <vertex_weights count="275"><input semantic="JOINT" offset="0" source="#TreeSaplingHeldController-Joints"/><input semantic="WEIGHT" offset="1" source="#TreeSaplingHeldController-Weights"/><vcount>1 1 1 1 1 1 1 1 1 1 1 1 1 1 1 1 1 1 1 1 1 1 1 1 1 1 1 1 1 1 1 1 1 1 1 1 1 1 1 1 1 1 1 1 1 1 1 1 1 1 1 1 1 1 1 1 1 1 1 1 1 1 1 1 1 1 1 1 1 1 1 1 1 1 1 1 1 1 1 1 1 1 1 1 1 1 1 1 1 1 1 1 1 1 1 1 1 1 1 1 1 1 1 1 1 1 1 1 1 1 1 1 1 1 1 1 1 1 1 1 1 1 1 1 1 1 1 1 1 1 1 1 1 1 1 1 1 1 1 1 1 1 1 1 1 1 1 1 1 1 1 1 1 1 1 1 1 1 1 1 1 1 1 1 1 1 1 1 1 1 1 1 1 1 1 1 1 1 1 1 1 1 1 1 1 1 1 1 1 1 1 1 1 1 1 1 1 1 1 1 1 1 1 1 1 1 1 1 1 1 1 1 1 1 1 1 1 1 1 1 1 1 1 1 1 1 1 1 1 1 1 1 1 1 1 1 1 1 1 1 1 1 1 1 1 1 1 1 1 1 1 1 1 1 1 1 1 1 1 1 1 1 1 1 1 1 1 1 1 1 1 1 1 1 1</vcount><v>0 0 0 1 0 2 0 3 0 4 0 5 0 6 0 7 0 8 0 9 0 10 0 11 0 12 0 13 0 14 0 15 0 16 0 17 0 18 0 19 0 20 0 21 0 22 0 23 0 24 0 25 0 26 0 27 0 28 0 29 0 30 0 31 0 32 0 33 0 34 0 35 0 36 0 37 0 38 0 39 0 40 0 41 0 42 0 43 0 44 0 45 0 46 0 47 0 48 0 49 0 50 0 51 0 52 0 53 0 54 0 55 0 56 0 57 0 58 0 59 0 60 0 61 0 62 0 63 0 64 0 65 0 66 0 67 0 68 0 69 0 70 0 71 0 72 0 73 0 74 0 75 0 76 0 77 0 78 0 79 0 80 0 81 0 82 0 83 0 84 0 85 0 86 0 87 0 88 0 89 0 90 0 91 0 92 0 93 0 94 0 95 0 96 0 97 0 98 0 99 0 100 0 101 0 102 0 103 0 104 0 105 0 106 0 107 0 108 0 109 0 110 0 111 0 112 0 113 0 114 0 115 0 116 0 117 0 118 0 119 0 120 0 121 0 122 0 123 0 124 0 125 0 126 0 127 0 128 0 129 0 130 0 131 0 132 0 133 0 134 0 135 0 136 0 137 0 138 0 139 0 140 0 141 0 142 0 143 0 144 0 145 0 146 0 147 0 148 0 149 0 150 0 151 0 152 0 153 0 154 0 155 0 156 0 157 0 158 0 159 0 160 0 161 0 162 0 163 0 164 0 165 0 166 0 167 0 168 0 169 0 170 0 171 0 172 0 173 0 174 0 175 0 176 0 177 0 178 0 179 0 180 0 181 0 182 0 183 0 184 0 185 0 186 0 187 0 188 0 189 0 190 0 191 0 192 0 193 0 194 0 195 0 196 0 197 0 198 0 199 0 200 0 201 0 202 0 203 0 204 0 205 0 206 0 207 0 208 0 209 0 210 0 211 0 212 0 213 0 214 0 215 0 216 0 217 0 218 0 219 0 220 0 221 0 222 0 223 0 224 0 225 0 226 0 227 0 228 0 229 0 230 0 231 0 232 0 233 0 234 0 235 0 236 0 237 0 238 0 239 0 240 0 241 0 242 0 243 0 244 0 245 0 246 0 247 0 248 0 249 0 250 0 251 0 252 0 253 0 254 0 255 0 256 0 257 0 258 0 259 0 260 0 261 0 262 0 263 0 264 0 265 0 266 0 267 0 268 0 269 0 270 0 271 0 272 0 273 0 274</v></vertex_weights>
  </skin></controller></library_controllers>
  <library_visual_scenes><visual_scene id="TreeSaplingHeld" name="TreeSaplingHeld">
    <node name="jnt_right_weapon" id="jnt_right_weapon" sid="jnt_right_weapon" type="JOINT"><matrix sid="matrix">1 0 0 0 0 1 0 0 0 0 1 0 0 0 0 1</matrix><node name="root_bucket_jnt" id="root_bucket_jnt" sid="root_bucket_jnt" type="JOINT"><matrix sid="matrix">1 0 0 0 0 1 0 0 0 0 1 0 0 0 0 1</matrix></node></node>
    <node name="TreeSaplingHeld" id="TreeSaplingHeld-node"><instance_controller url="#TreeSaplingHeldController"><bind_material><technique_common><instance_material symbol="poleplant" target="#poleplant"/></technique_common></bind_material></instance_controller></node>
  </visual_scene></library_visual_scenes><scene><instance_visual_scene url="#TreeSaplingHeld"/></scene>
</COLLADA>
